<svg width="371" height="100" viewBox="0 0 371 100" fill="none" xmlns="http://www.w3.org/2000/svg">
<circle cx="50" cy="50" r="50" fill="url(#paint0_linear_0_1)"/>
<path d="M9.5 69V33.25H48.7V39.75H17.5V47.65H45.8V54.15H17.5V62.5H48.7V69H9.5ZM52.1777 69V62.95L79.0277 39.85H53.3277V33.35H90.6277V39.4L63.7277 62.5H90.5277V69H52.1777Z" fill="white"/>
<path d="M117.5 67V31.25H156.7V37.75H125.5V45.65H153.8V52.15H125.5V60.5H156.7V67H117.5ZM160.178 67V60.95L187.028 37.85H161.328V31.35H198.628V37.4L171.728 60.5H198.528V67H160.178ZM221.113 67V31.25H229.113V60.5H255.263V67H221.113ZM272.723 67.25C268.257 67.25 264.773 66.15 262.273 63.95C259.773 61.7167 258.523 58.45 258.523 54.15C258.523 49.8167 259.773 46.55 262.273 44.35C264.773 42.1167 268.257 41 272.723 41H281.973C286.44 41 289.923 42.1167 292.423 44.35C294.923 46.55 296.173 49.8167 296.173 54.15C296.173 58.45 294.923 61.7167 292.423 63.95C289.923 66.15 286.44 67.25 281.973 67.25H272.723ZM272.723 61.5H281.973C284.14 61.5 285.79 60.9 286.923 59.7C288.09 58.5 288.673 56.65 288.673 54.15C288.673 51.6167 288.09 49.75 286.923 48.55C285.79 47.35 284.14 46.75 281.973 46.75H272.723C270.557 46.75 268.89 47.35 267.723 48.55C266.59 49.75 266.023 51.6167 266.023 54.15C266.023 56.65 266.59 58.5 267.723 59.7C268.89 60.9 270.557 61.5 272.723 61.5ZM306.786 78.25V72.5H321.886C323.886 72.5 324.886 71.4833 324.886 69.45V67H313.886C309.419 67 305.936 65.9 303.436 63.7C300.936 61.5 299.686 58.3167 299.686 54.15C299.686 49.95 300.936 46.75 303.436 44.55C305.936 42.35 309.419 41.25 313.886 41.25H332.136V70.35C332.136 72.7167 331.452 74.6167 330.086 76.05C328.719 77.5167 326.586 78.25 323.686 78.25H306.786ZM313.886 61.25H324.886V47H313.886C311.719 47 310.052 47.6 308.886 48.8C307.752 49.9667 307.186 51.75 307.186 54.15C307.186 56.5167 307.752 58.3 308.886 59.5C310.052 60.6667 311.719 61.25 313.886 61.25ZM336.798 67.25V61.5H361.298C362.698 61.5 363.398 60.7167 363.398 59.15C363.398 57.6167 362.698 56.85 361.298 56.85H345.448C342.482 56.85 340.232 56.1833 338.698 54.85C337.165 53.4833 336.398 51.5333 336.398 49C336.398 46.4333 337.165 44.4667 338.698 43.1C340.265 41.7 342.515 41 345.448 41H368.248V46.75H345.798C344.365 46.75 343.648 47.45 343.648 48.85C343.648 49.55 343.848 50.1 344.248 50.5C344.648 50.9 345.165 51.1 345.798 51.1H362.598C365.198 51.1 367.182 51.7833 368.548 53.15C369.948 54.4833 370.648 56.4333 370.648 59C370.648 61.6 369.948 63.6333 368.548 65.1C367.148 66.5333 365.165 67.25 362.598 67.25H336.798Z" fill="black"/>
<defs>
<linearGradient id="paint0_linear_0_1" x1="-2.29366e-06" y1="92.5" x2="95.5" y2="33.5" gradientUnits="userSpaceOnUse">
<stop stop-color="white"/>
<stop offset="0.5"/>
<stop offset="1"/>
</linearGradient>
</defs>
</svg>
